HIERARCHY
ROOT hip
{
	OFFSET 0.000000 0.000000 0.000000 
	CHANNELS 6 Xposition Yposition Zposition Xrotation Zrotation Yrotation
	JOINT abdomen
	{
		OFFSET 0.000000 3.402643 0.000000 
		CHANNELS 3 Xrotation Zrotation Yrotation
		JOINT chest
		{
			OFFSET 0.000000 8.438565 -0.680529 
			CHANNELS 3 Xrotation Zrotation Yrotation
			JOINT neck
			{
				OFFSET 0.000000 10.207942 -0.272212 
				CHANNELS 3 Xrotation Zrotation Yrotation
				JOINT head
				{
					OFFSET 0.000000 3.130431 0.000000 
					CHANNELS 3 Xrotation Zrotation Yrotation
					End Site
					{
						OFFSET 0.000000 3.130435 0.000000 
					}
				}
			}
			JOINT lCollar
			{
				OFFSET 3.470700 6.669187 -0.816635 
				CHANNELS 3 Yrotation Zrotation Xrotation
				JOINT lShldr
				{
					OFFSET 3.198488 0.000000 0.000000 
					CHANNELS 3 Zrotation Yrotation Xrotation
					JOINT lForeArm
					{
						OFFSET 10.139888 0.000000 0.000000 
						CHANNELS 3 Yrotation Zrotation Xrotation
						JOINT lHand
						{
							OFFSET 8.370511 0.000000 0.000000 
							CHANNELS 3 Zrotation Yrotation Xrotation
							End Site
							{
								OFFSET 4.083176 0.000000 0.000000 
							}
						}
					}
				}
			}
			JOINT rCollar
			{
				OFFSET -3.470700 6.669187 -0.816635 
				CHANNELS 3 Yrotation Zrotation Xrotation
				JOINT rShldr
				{
					OFFSET -3.198488 0.000000 0.000000 
					CHANNELS 3 Zrotation Yrotation Xrotation
					JOINT rForeArm
					{
						OFFSET -10.139888 0.000000 0.000000 
						CHANNELS 3 Yrotation Zrotation Xrotation
						JOINT rHand
						{
							OFFSET -8.370511 0.000000 0.000000 
							CHANNELS 3 Zrotation Yrotation Xrotation
							End Site
							{
								OFFSET -4.083176 0.000000 0.000000 
							}
						}
					}
				}
			}
		}
	}
	JOINT lThigh
	{
		OFFSET 5.308129 -1.633274 1.361059 
		CHANNELS 3 Xrotation Zrotation Yrotation
		JOINT lShin
		{
			OFFSET -2.041588 -20.007561 0.000000 
			CHANNELS 3 Xrotation Zrotation Yrotation
			JOINT lFoot
			{
				OFFSET 0.000000 -19.190928 -1.224953 
				CHANNELS 3 Xrotation Yrotation Zrotation
				End Site
				{
					OFFSET 0.000000 -2.449906 4.627600 
				}
			}
		}
	}
	JOINT rThigh
	{
		OFFSET -5.308129 -1.633274 1.361059 
		CHANNELS 3 Xrotation Zrotation Yrotation
		JOINT rShin
		{
			OFFSET 2.041588 -20.007561 0.000000 
			CHANNELS 3 Xrotation Zrotation Yrotation
			JOINT rFoot
			{
				OFFSET 0.000000 -19.190928 -1.224953 
				CHANNELS 3 Xrotation Yrotation Zrotation
				End Site
				{
					OFFSET 0.000000 -2.449906 4.627600 
				}
			}
		}
	}
}
MOTION
Frames: 8
Frame Time: 0.011111
8.670027 48.611008 -30.889349 4.869315 -1.243010 4.343712 18.789318 0.746912 -6.805439 -35.502445 1.781655 -2.072356 -12.092610 8.291687 -0.423219 -5.302393 -27.169338 3.017847 -1.931697 -12.150426 0.122601 44.818974 -20.369619 -26.862659 -84.013992 3.899185 25.428200 8.524705 12.647240 27.613878 4.400109 13.372850 -0.765886 -48.115894 38.359219 -47.141571 79.729530 -6.618123 22.313231 -8.534408 -12.637552 80.677597 -22.958952 20.390501 27.539440 59.094742 -2.837456 -8.068040 -37.544899 -4.742105 -3.819680 -21.664852 -10.344691 -26.957434 58.626793 2.880987 7.986119 -43.076038 -1.325580 -2.139826 
8.674669 48.648773 -30.893063 4.946864 -1.363526 4.420305 18.879816 0.770029 -6.712458 -35.511822 1.698794 -2.040846 -12.139643 8.425213 -0.552171 -5.837441 -27.289318 2.956582 -1.931697 -12.150426 0.122601 44.524212 -20.272360 -27.160324 -84.146133 3.779492 25.560072 8.524705 12.647240 27.750595 4.400109 13.372850 -0.765886 -47.903286 38.020481 -47.115643 79.979095 -6.498499 22.459999 -8.534408 -12.637552 80.755714 -23.075768 20.418844 27.355450 59.007126 -2.837273 -8.051261 -37.441200 -4.691379 -3.806317 -21.630121 -10.194530 -26.987309 58.469856 2.900722 7.984051 -42.984329 -1.429593 -2.195239 
8.682406 48.659290 -30.894608 5.033995 -1.537084 4.530948 18.909630 0.864506 -6.640757 -35.531231 1.662816 -2.022027 -12.070517 8.357099 -0.632481 -6.283789 -27.201109 2.851978 -1.931697 -12.150426 0.122601 44.084217 -20.199936 -27.473186 -84.276741 3.657569 25.682102 8.524705 12.647240 27.916613 4.400109 13.372850 -0.765886 -47.696037 37.711624 -46.835247 80.257553 -6.366217 22.639978 -8.534408 -12.637552 81.224464 -23.239353 20.490639 27.128817 58.909035 -2.875095 -8.044466 -37.311489 -4.995518 -4.023920 -21.599104 -9.997097 -27.010529 58.303566 2.928493 7.966139 -42.991596 -1.490311 -2.238433 
8.686740 48.677246 -30.897705 5.218535 -1.588014 4.601077 18.851339 0.796881 -6.682272 -35.599728 1.688722 -2.031509 -11.925538 8.289780 -0.655696 -6.675583 -27.068474 2.849936 -1.931697 -12.150426 0.122601 43.618805 -20.029152 -27.679806 -84.435539 3.508670 25.856588 8.524705 12.647240 28.111925 4.400109 13.372850 -0.765886 -47.423527 37.398228 -46.235706 80.514168 -6.238226 22.806864 -8.534408 -12.637552 81.937363 -23.415951 20.444069 27.005976 58.761982 -2.866713 -8.047433 -37.238056 -4.946589 -4.002759 -21.714294 -9.906281 -26.987431 58.117474 2.929997 7.961585 -43.001328 -1.484983 -2.246131 
8.687049 48.732952 -30.907608 5.314811 -1.489112 4.716186 18.972496 0.542033 -6.815736 -35.697083 1.661354 -2.048223 -11.886877 8.336705 -0.666620 -6.892571 -26.945848 2.877862 -1.931697 -12.150426 0.122601 43.325275 -19.893101 -27.860435 -84.573555 3.368690 26.009171 8.524705 12.647240 28.346298 4.400109 13.372850 -0.765886 -47.156567 36.859867 -45.619514 80.721672 -6.128085 22.929136 -8.534408 -12.637552 82.728371 -23.445517 20.181185 26.824831 58.557030 -2.904271 -8.012460 -37.216724 -4.812964 -3.902772 -21.743679 -9.965276 -26.931196 57.883457 2.967443 7.914231 -42.944744 -1.668489 -2.362019 
8.693549 48.810944 -30.924320 5.342929 -1.494527 4.852452 19.269743 0.425126 -6.874372 -35.745274 1.553316 -2.031305 -12.153779 8.437573 -0.777576 -6.888707 -26.886143 2.748979 -1.931697 -12.150426 0.122601 43.185493 -19.761801 -28.093821 -84.643288 3.298694 26.085304 8.524705 12.647240 28.590439 4.400109 13.372850 -0.765886 -46.827103 36.542740 -45.731586 80.983788 -5.989829 23.106609 -8.534408 -12.637552 82.943214 -23.424147 19.981567 26.591862 58.302639 -2.925143 -7.993412 -37.172882 -5.050655 -4.095159 -21.628887 -9.958582 -27.023804 57.579826 2.998218 7.896179 -42.798740 -1.859206 -2.493509 
8.697262 48.875637 -30.937941 5.498796 -1.676734 4.871310 19.321264 0.517870 -6.785570 -35.744614 1.428156 -2.007921 -12.389270 8.498440 -0.884164 -6.914111 -26.817692 2.602819 -1.931697 -12.150426 0.122601 43.020851 -19.512508 -28.142738 -84.711174 3.227541 26.161497 8.524705 12.647240 28.668568 4.400109 13.372850 -0.765886 -46.428703 36.603260 -46.235947 81.297455 -5.818424 23.318893 -8.534408 -12.637552 82.620956 -23.601728 20.044601 26.397337 58.047981 -2.954547 -7.978803 -37.119625 -5.143561 -4.167818 -21.616680 -9.721039 -27.050751 57.256397 3.035746 7.879918 -42.637417 -1.981953 -2.525644 
8.688907 48.931652 -30.945366 5.683846 -1.751755 4.869760 19.303547 0.432543 -6.779826 -35.773952 1.420226 -1.996690 -12.492827 8.351920 -0.876751 -6.828155 -26.430605 2.546218 -1.931697 -12.150426 0.122601 42.752678 -19.191711 -27.990622 -84.811623 3.120650 26.290096 8.524705 12.647240 28.756456 4.400109 13.372850 -0.765886 -46.108925 36.453739 -46.270691 81.604149 -5.638257 23.521614 -8.534408 -12.637552 82.699074 -23.737452 20.032545 26.342367 57.783508 -2.983932 -7.963274 -37.055450 -4.965332 -4.040596 -21.679440 -9.560312 -26.991446 56.962711 3.046687 7.861644 -42.509586 -2.024179 -2.497721 
